<svg width="73" height="71" viewBox="0 0 73 71" fill="none" xmlns="http://www.w3.org/2000/svg">
<path d="M72.3967 35.8613C72.3967 16.5313 56.7148 0.861267 37.3702 0.861267C18.0256 0.861267 2.34375 16.5313 2.34375 35.8613C2.34375 55.1912 18.0256 70.8613 37.3702 70.8613C56.7148 70.8613 72.3967 55.1912 72.3967 35.8613Z" fill="black"/>
<path fill-rule="evenodd" clip-rule="evenodd" d="M48.203 69.1531C44.7914 70.2619 41.1504 70.8613 37.3703 70.8613C33.5876 70.8613 29.9444 70.261 26.5308 69.1509C28.1077 69.3398 28.6903 68.3139 28.6903 67.4281C28.6903 67.0425 28.6838 66.3623 28.6749 65.4525C28.6648 64.3997 28.6515 63.0394 28.6422 61.4718C18.8983 63.5884 16.8426 56.7764 16.8426 56.7764C15.2511 52.7313 12.9547 51.6541 12.9547 51.6541C9.77386 49.4804 13.1955 49.5244 13.1955 49.5244C16.7091 49.7719 18.5589 53.1341 18.5589 53.1341C21.685 58.4864 26.7573 56.941 28.7538 56.0433C29.0713 53.78 29.9776 52.2363 30.978 51.3609C23.1999 50.4767 15.0234 47.4733 15.0234 34.0525C15.0234 30.2282 16.3873 27.1025 18.629 24.6528C18.2678 23.7666 17.0659 20.2071 18.9705 15.3846C18.9705 15.3846 21.9127 14.4433 28.6028 18.9746C31.3983 18.1974 34.3931 17.8103 37.3725 17.7946C40.3476 17.8097 43.3445 18.1974 46.1423 18.9746C52.828 14.4433 55.7636 15.3846 55.7636 15.3846C57.6747 20.2071 56.4729 23.7666 56.1117 24.6528C58.3578 27.1025 59.7128 30.2282 59.7128 34.0525C59.7128 47.5059 51.5232 50.4681 43.7211 51.3348C44.9776 52.4161 46.0985 54.5524 46.0985 57.8209C46.0985 60.9518 46.0789 63.6774 46.0659 65.4837C46.0595 66.3785 46.0547 67.0477 46.0547 67.4286C46.0547 68.3185 46.6233 69.3465 48.203 69.1531Z" fill="white"/>
</svg>
