<svg width="62" height="46" viewBox="0 0 62 46" fill="none" xmlns="http://www.w3.org/2000/svg">
<path d="M57.2592 45.7511H3.8444C1.73833 45.7511 0.0290527 44.0431 0.0290527 41.9386V3.81399C0.0290527 1.70697 1.73833 0.00152588 3.8444 0.00152588H57.2592C59.3653 0.00152588 61.0746 1.70697 61.0746 3.81399V41.9386C61.0746 44.0431 59.3653 45.7511 57.2592 45.7511Z" fill="#EAEAEA"/>
<path d="M7.65974 45.7511H3.8444C1.73833 45.7511 0.0290527 44.0431 0.0290527 41.9386V3.81399C0.0290527 1.70697 1.73833 0.00152588 3.8444 0.00152588C5.95301 0.00152588 7.65974 1.70697 7.65974 3.81399V45.7511Z" fill="#D54C3F"/>
<path d="M53.4437 45.751H57.2591C59.3651 45.751 61.0744 44.043 61.0744 41.9385V3.81393C61.0744 1.70945 59.3651 0.00146484 57.2591 0.00146484C55.1505 0.00146484 53.4437 1.70945 53.4437 3.81393V45.751Z" fill="#B63524"/>
<path d="M59.4441 6.94011C61.1712 5.73537 61.5934 3.35639 60.3877 1.63062C59.1796 -0.0951531 56.8039 -0.519607 55.0742 0.687672L30.5543 18.5249H30.5518H30.5492L6.02927 0.687672C4.30219 -0.517065 1.92396 -0.0926114 0.715768 1.63062C-0.489881 3.35894 -0.0676498 5.73537 1.65943 6.94011L1.55769 6.86386L30.5518 27.9595L59.4441 6.94011Z" fill="#DE5145"/>
<path d="M57.2592 0.00398736C56.4452 0.00398736 55.6923 0.258151 55.0743 0.69023L30.5543 18.5275H30.5518H30.5492L6.02928 0.687689C5.39085 0.24036 4.62523 0.00144572 3.84436 0.00398736H57.2592Z" fill="#EFEFEF"/>
<path d="M7.66214 12.9486L1.23202 6.58429L1.22693 6.58937L1.65933 6.94012L1.56014 6.86641L7.66214 11.3067V12.9943V12.9486Z" fill="#C64132"/>
<path d="M26.3143 31.2535L7.65979 45.751L7.66233 12.791L26.3117 31.2459L26.3143 31.2535Z" fill="#E3E3E3"/>
<path d="M53.4438 11.3066L30.5518 27.9595V35.4929L40.8023 45.7509H53.4438V11.3066Z" fill="url(#paint0_linear_71_91)"/>
<path d="M7.6595 11.3042L7.66204 11.3067V12.791L26.3114 31.2484L26.314 31.2535L7.6595 45.751L7.66204 12.9486L7.6595 12.9461V45.751H3.84415H30.5516V35.4904L26.314 31.2535L26.3089 31.2484L7.66204 12.791V11.3067L30.5516 27.9595L7.6595 11.3042ZM5.41862 0.339525C5.62973 0.436107 5.83322 0.550481 6.02907 0.68773C5.83576 0.553023 5.63228 0.436107 5.41862 0.339525Z" fill="#CCCCCC"/>
<path d="M0.0288086 3.85454V41.9385C0.0288086 44.043 1.73808 45.7509 3.84415 45.7509H7.6595V12.946L1.33111 6.68339C0.491737 5.95139 0.0415264 4.91186 0.0288086 3.85454ZM0.176335 2.76672C0.176335 2.76926 0.173792 2.7718 0.173792 2.77689C0.173792 2.7718 0.173792 2.76926 0.176335 2.76672ZM0.891076 1.39932C0.60111 1.75515 0.37219 2.16435 0.222119 2.61168C0.33658 2.2711 0.499368 1.94069 0.71557 1.63061C0.771529 1.55181 0.832574 1.47302 0.891076 1.39932ZM2.95391 0.108163C2.71481 0.164079 2.48589 0.24287 2.26714 0.341994C2.48843 0.24287 2.7199 0.164079 2.95391 0.108163ZM3.03784 0.0878296C3.03276 0.0878296 3.02767 0.0903717 3.02258 0.0903717C3.02767 0.0903717 3.03276 0.0903712 3.03784 0.0878296Z" fill="#B94237"/>
<path d="M3.84948 0.00152588C3.57732 0.00152588 3.30516 0.0320254 3.03809 0.0879414C3.033 0.0879414 3.02791 0.0904835 3.02283 0.0904835C3.0152 0.0930251 3.00756 0.0930248 2.99739 0.0955664C2.98467 0.10065 2.97195 0.103191 2.95924 0.105733C2.95669 0.105733 2.95415 0.105733 2.95415 0.108275C2.72014 0.164191 2.48868 0.242982 2.26739 0.342106C2.2623 0.344647 2.25467 0.349731 2.24958 0.352272C2.24195 0.354814 2.23178 0.359897 2.22415 0.362439C2.21397 0.367522 2.2038 0.372605 2.19362 0.377689C2.19108 0.377689 2.18854 0.38023 2.18599 0.38023C1.69763 0.616603 1.25505 0.957183 0.89132 1.39943C0.832818 1.47314 0.771773 1.55193 0.715815 1.63072C0.499612 1.9408 0.336824 2.27121 0.222363 2.61179C0.222363 2.61433 0.21982 2.61687 0.21982 2.61687C0.217276 2.62958 0.214733 2.64229 0.209646 2.65246C0.209646 2.65754 0.207102 2.66262 0.204559 2.66516C0.202015 2.67279 0.199471 2.68296 0.196928 2.69058C0.194384 2.70075 0.191841 2.70837 0.189297 2.716C0.189297 2.72362 0.186754 2.72871 0.18421 2.73379C0.181666 2.7465 0.179123 2.75666 0.176579 2.76683C0.176579 2.76937 0.174036 2.77191 0.174036 2.777C0.168949 2.78971 0.166405 2.80241 0.161318 2.81512C0.0773804 3.13028 0.0315963 3.45307 0.0290527 3.77078V3.85211C0.0417705 4.90943 0.491981 5.94896 1.33136 6.6835L1.27794 6.63012L1.22707 6.58946L1.23216 6.58437L1.27794 6.63012L1.63404 6.91987L7.65974 11.3042L30.5518 27.9596V18.5275H30.5493L6.05221 0.703019L6.02932 0.687769C5.83346 0.55052 5.62998 0.436146 5.41886 0.339564C5.41632 0.339564 5.41377 0.337022 5.40869 0.337022C5.4036 0.334481 5.39597 0.331939 5.39088 0.329397C5.38325 0.324314 5.37816 0.321773 5.37053 0.319231C5.36799 0.319231 5.36545 0.316689 5.3629 0.316689C4.8898 0.110817 4.37854 0.00406734 3.85711 0.00406734H3.8444C3.84694 0.00406734 3.85203 0.00406734 3.85457 0.00406734H3.85711H3.95886C3.9207 0.00152569 3.88509 0.00152588 3.84948 0.00152588Z" fill="#C1473C"/>
<path d="M30.5518 0.00396729H3.95882H3.85708C4.37851 0.00396729 4.88976 0.110717 5.36287 0.316589C5.36541 0.316589 5.36795 0.319131 5.3705 0.319131C5.37813 0.321672 5.38322 0.324214 5.39085 0.329297C5.39593 0.331839 5.40356 0.334381 5.40865 0.336922C5.41119 0.339464 5.41628 0.339464 5.41883 0.342006C5.63248 0.438588 5.83597 0.555503 6.02928 0.69021L6.04963 0.70546L30.5467 18.5274L30.5492 0.00396729H30.5518ZM3.85453 0.00396729C3.85199 0.00396729 3.8469 0.00396729 3.84436 0.00396729H3.85708C3.85708 0.00396729 3.85708 0.00396729 3.85453 0.00396729Z" fill="#D0D0D0"/>
<path d="M1.2778 6.63004L1.33121 6.68341L7.6596 12.946L7.66214 12.9486V12.791V11.3067L1.6339 6.91979L1.2778 6.63004ZM1.23202 6.58429L1.22693 6.58937L1.2778 6.63004L1.23202 6.58429Z" fill="#AC392C"/>
<path d="M7.66233 12.791V12.9486L7.65979 45.751L26.3143 31.2535L26.3117 31.2459L7.66233 12.791Z" fill="#C6C6C6"/>
<path d="M7.66211 11.3066V12.791L26.3115 31.2458L26.3141 31.2534V31.2509L26.3115 31.2458L30.5516 27.9595L7.66211 11.3066Z" fill="url(#paint1_linear_71_91)"/>
<path d="M30.5518 27.9595L26.3116 31.2458L26.3142 31.2509L30.5518 35.4929V27.9595Z" fill="url(#paint2_linear_71_91)"/>
<defs>
<linearGradient id="paint0_linear_71_91" x1="26.0992" y1="28.5683" x2="53.2319" y2="28.5683" gradientUnits="userSpaceOnUse">
<stop stop-color="#D9D9D9"/>
<stop offset="1" stop-color="#E2E2E2"/>
</linearGradient>
<linearGradient id="paint1_linear_71_91" x1="7.68602" y1="21.2762" x2="30.576" y2="21.2762" gradientUnits="userSpaceOnUse">
<stop stop-color="#AEAEAE"/>
<stop offset="1" stop-color="#B2B2B2"/>
</linearGradient>
<linearGradient id="paint2_linear_71_91" x1="26.0992" y1="31.7676" x2="53.2319" y2="31.7676" gradientUnits="userSpaceOnUse">
<stop stop-color="#BDBDBD"/>
<stop offset="1" stop-color="#C5C5C5"/>
</linearGradient>
</defs>
</svg>
