<svg width="63" height="63" viewBox="0 0 63 63" fill="none" xmlns="http://www.w3.org/2000/svg">
<path d="M59.5273 0.861267H4.43256C2.53081 0.861267 0.989136 2.4034 0.989136 4.30571V59.4168C0.989136 61.3191 2.53081 62.8613 4.43256 62.8613H59.5273C61.4291 62.8613 62.9707 61.3191 62.9707 59.4168V4.30571C62.9707 2.4034 61.4291 0.861267 59.5273 0.861267Z" fill="#117EB8"/>
<path fill-rule="evenodd" clip-rule="evenodd" d="M12.2999 24.8415H20.5839V51.5032H12.2999V24.8415ZM16.4432 11.5881C19.0921 11.5881 21.2442 13.7409 21.2442 16.3906C21.2442 19.0428 19.0921 21.1964 16.4432 21.1964C15.8049 21.2085 15.1705 21.0932 14.5772 20.8572C13.984 20.6212 13.4437 20.2692 12.9879 19.8219C12.5322 19.3746 12.1702 18.8409 11.9231 18.2521C11.676 17.6632 11.5487 17.0309 11.5487 16.3923C11.5487 15.7536 11.676 15.1214 11.9231 14.5325C12.1702 13.9436 12.5322 13.4099 12.9879 12.9626C13.4437 12.5153 13.984 12.1634 14.5772 11.9274C15.1705 11.6914 15.8049 11.5761 16.4432 11.5881ZM25.7801 24.8406H33.7258V28.484H33.8359C34.9421 26.3881 37.6444 24.1784 41.674 24.1784C50.0622 24.1784 51.6118 29.7008 51.6118 36.8798V51.5032H43.3329V38.5375C43.3329 35.4461 43.2761 31.4686 39.0286 31.4686C34.7183 31.4686 34.0563 34.8364 34.0563 38.3144V51.5032H25.7792V24.8415L25.7801 24.8406Z" fill="white"/>
</svg>
